<svg class="torre-svg-diagram nft-escalera-svg nft-svg-diagram--scada nft-diagram--scroll nft-escalera--dos-caras" xmlns="http://www.w3.org/2000/svg" viewBox="0 0 1004 580" width="100%" class="svg-fit-block" preserveAspectRatio="xMidYMid meet" role="img" aria-labelledby="nftEscTitle"><title id="nftEscTitle">NFT escalera · 40 L · escalera A · 2 caras · 4 peldaños/cara</title><defs><linearGradient id="nftEscCh" x1="0" y1="0" x2="0" y2="1"><stop offset="0%" stop-color="#e8d4b8"/><stop offset="100%" stop-color="#c9a66b"/></linearGradient><linearGradient id="nftTkBody" x1="0" y1="0" x2="0" y2="1"><stop offset="0%" stop-color="#f8fafc"/><stop offset="100%" stop-color="#e2e8f0"/></linearGradient><linearGradient id="nftTkAq" x1="0" y1="0" x2="0" y2="1"><stop offset="0%" stop-color="#7dd3fc" stop-opacity="0.82"/><stop offset="100%" stop-color="#0284c7" stop-opacity="0.92"/></linearGradient><clipPath id="nftTkClip"><rect x="417" y="425" width="175" height="94" rx="10"/></clipPath><marker id="nftArrSupEsc" viewBox="0 0 10 10" refX="8" refY="5" markerWidth="6" markerHeight="6" orient="auto"><path d="M0 0 L10 5 L0 10 z" fill="#2563eb"/></marker><marker id="nftArrRetEsc" viewBox="0 0 10 10" refX="8" refY="5" markerWidth="6" markerHeight="6" orient="auto"><path d="M0 0 L10 5 L0 10 z" fill="#16a34a"/></marker></defs><g class="nft-flow-legend" transform="translate(12,22)" pointer-events="none" aria-hidden="true"><line x1="0" y1="6" x2="22" y2="6" stroke="#2563eb" stroke-width="3" stroke-linecap="round"/><text x="26" y="9" font-size="10" fill="#1e40af" font-family="system-ui,sans-serif" font-weight="600">Alimentación: depósito → subida central → T → tubos superiores</text><line x1="0" y1="22" x2="22" y2="22" stroke="#16a34a" stroke-width="3" stroke-dasharray="5 4" stroke-linecap="round"/><text x="26" y="25" font-size="10" fill="#166534" font-family="system-ui,sans-serif" font-weight="600">Retorno: cada cara → su puerto en el depósito (izq. y dcha.)</text></g><g class="nft-esc-frame" pointer-events="none" aria-hidden="true"><line x1="504" y1="96" x2="336" y2="362" stroke="#94a3b8" stroke-width="2.2" stroke-linecap="round" stroke-dasharray="6 5" opacity="0.78"/><line x1="504" y1="96" x2="672" y2="362" stroke="#94a3b8" stroke-width="2.2" stroke-linecap="round" stroke-dasharray="6 5" opacity="0.78"/><line x1="336" y1="362" x2="672" y2="362" stroke="#cbd5e1" stroke-width="1.8" stroke-linecap="round" opacity="0.65"/><line x1="423.36" y1="223.24" x2="584.64" y2="223.24" stroke="#cbd5e1" stroke-width="1.2" stroke-linecap="round" opacity="0.7"/></g><g class="nft-esc-tee-mark" pointer-events="none" aria-hidden="true"><line x1="504" y1="114" x2="504" y2="126" stroke="#475569" stroke-width="2" stroke-linecap="round" opacity="0.95"/><line x1="438" y1="120" x2="570" y2="120" stroke="#475569" stroke-width="2" stroke-linecap="round" opacity="0.95"/></g><g class="nft-esc-face-labels" pointer-events="none" aria-hidden="true"><text x="281.0" y="20" text-anchor="middle" font-size="11" font-weight="800" fill="#166534" font-family="system-ui,sans-serif">Cara izquierda</text><text x="727.0" y="20" text-anchor="middle" font-size="11" font-weight="800" fill="#166534" font-family="system-ui,sans-serif">Cara derecha</text></g><path d="M 428 446 L 505 446 L 505 506 L 504 506 L 504 120 L 447 120 L 447 130 L 271 130 L 183 130 L 183 204 L 215 204 L 459 204 L 491 204 L 491 278 L 403 278 L 159 278 L 71 278 L 71 352 L 103 352 L 347 352 M 504 120 L 737 120 L 737 130 L 561 130 L 517 130 L 517 204 L 549 204 L 793 204 L 881 204 L 881 278 L 849 278 L 605 278 L 573 278 L 573 352 L 661 352 L 905 352" stroke="#2563eb" stroke-linecap="round" stroke-linejoin="round" fill="none" opacity="0.45" stroke-width="5"/><path d="M 347 352 L 347 391 L 428 391 L 428 438 M 905 352 L 913 352 L 913 391 L 581 391 L 581 438" stroke="#16a34a" stroke-linecap="round" stroke-linejoin="round" fill="none" opacity="0.45" stroke-width="5"/><rect x="264" y="119" width="190" height="22" rx="8" fill="url(#nftEscCh)" stroke="#92400e" stroke-width="1.05"/><rect x="208" y="193" width="258" height="22" rx="8" fill="url(#nftEscCh)" stroke="#92400e" stroke-width="1.05"/><rect x="152" y="267" width="258" height="22" rx="8" fill="url(#nftEscCh)" stroke="#92400e" stroke-width="1.05"/><rect x="96" y="341" width="258" height="22" rx="8" fill="url(#nftEscCh)" stroke="#92400e" stroke-width="1.05"/><rect x="554" y="119" width="190" height="22" rx="8" fill="url(#nftEscCh)" stroke="#92400e" stroke-width="1.05"/><rect x="542" y="193" width="258" height="22" rx="8" fill="url(#nftEscCh)" stroke="#92400e" stroke-width="1.05"/><rect x="598" y="267" width="258" height="22" rx="8" fill="url(#nftEscCh)" stroke="#92400e" stroke-width="1.05"/><rect x="654" y="341" width="258" height="22" rx="8" fill="url(#nftEscCh)" stroke="#92400e" stroke-width="1.05"/><path class="nft-flow-supply" d="M 428 446 L 505 446 L 505 506 L 504 506 L 504 120 L 447 120 L 447 130 L 271 130 L 183 130 L 183 204 L 215 204 L 459 204 L 491 204 L 491 278 L 403 278 L 159 278 L 71 278 L 71 352 L 103 352 L 347 352 M 504 120 L 737 120 L 737 130 L 561 130 L 517 130 L 517 204 L 549 204 L 793 204 L 881 204 L 881 278 L 849 278 L 605 278 L 573 278 L 573 352 L 661 352 L 905 352" stroke="#2563eb" fill="none" stroke-dasharray="11 9" stroke-linecap="round" stroke-linejoin="round" stroke-width="3.4" opacity="0.98" marker-end="url(#nftArrSupEsc)"/><path class="nft-flow-return" d="M 347 352 L 347 391 L 428 391 L 428 438 M 905 352 L 913 352 L 913 391 L 581 391 L 581 438" stroke="#16a34a" fill="none" stroke-dasharray="8 7" stroke-linecap="round" stroke-linejoin="round" stroke-width="3.4" opacity="0.98" marker-end="url(#nftArrRetEsc)"/><circle cx="447.00" cy="121.2" r="12.76" fill="#f8fafc" stroke="#94a3b8" stroke-width="1.1"/><text x="447.00" y="145.32" text-anchor="middle" font-size="8.5" font-weight="800" fill="#475569" pointer-events="none">1</text><circle cx="421.86" cy="121.2" r="12.76" fill="#f8fafc" stroke="#94a3b8" stroke-width="1.1"/><text x="421.86" y="145.32" text-anchor="middle" font-size="8.5" font-weight="800" fill="#475569" pointer-events="none">2</text><circle cx="396.71" cy="121.2" r="12.76" fill="#f8fafc" stroke="#94a3b8" stroke-width="1.1"/><text x="396.71" y="145.32" text-anchor="middle" font-size="8.5" font-weight="800" fill="#475569" pointer-events="none">3</text><circle cx="371.57" cy="121.2" r="12.76" fill="#f8fafc" stroke="#94a3b8" stroke-width="1.1"/><text x="371.57" y="145.32" text-anchor="middle" font-size="8.5" font-weight="800" fill="#475569" pointer-events="none">4</text><circle cx="346.43" cy="121.2" r="12.76" fill="#f8fafc" stroke="#94a3b8" stroke-width="1.1"/><text x="346.43" y="145.32" text-anchor="middle" font-size="8.5" font-weight="800" fill="#475569" pointer-events="none">5</text><circle cx="321.29" cy="121.2" r="12.76" fill="#f8fafc" stroke="#94a3b8" stroke-width="1.1"/><text x="321.29" y="145.32" text-anchor="middle" font-size="8.5" font-weight="800" fill="#475569" pointer-events="none">6</text><circle cx="296.14" cy="121.2" r="12.76" fill="#f8fafc" stroke="#94a3b8" stroke-width="1.1"/><text x="296.14" y="145.32" text-anchor="middle" font-size="8.5" font-weight="800" fill="#475569" pointer-events="none">7</text><circle cx="271.00" cy="121.2" r="12.76" fill="#f8fafc" stroke="#94a3b8" stroke-width="1.1"/><text x="271.00" y="145.32" text-anchor="middle" font-size="8.5" font-weight="800" fill="#475569" pointer-events="none">8</text><circle cx="215.00" cy="195.2" r="12.76" fill="#f8fafc" stroke="#94a3b8" stroke-width="1.1"/><text x="215.00" y="219.32" text-anchor="middle" font-size="8.5" font-weight="800" fill="#475569" pointer-events="none">1</text><circle cx="249.86" cy="195.2" r="12.76" fill="#f8fafc" stroke="#94a3b8" stroke-width="1.1"/><text x="249.86" y="219.32" text-anchor="middle" font-size="8.5" font-weight="800" fill="#475569" pointer-events="none">2</text><circle cx="284.71" cy="195.2" r="12.76" fill="#f8fafc" stroke="#94a3b8" stroke-width="1.1"/><text x="284.71" y="219.32" text-anchor="middle" font-size="8.5" font-weight="800" fill="#475569" pointer-events="none">3</text><circle cx="319.57" cy="195.2" r="12.76" fill="#f8fafc" stroke="#94a3b8" stroke-width="1.1"/><text x="319.57" y="219.32" text-anchor="middle" font-size="8.5" font-weight="800" fill="#475569" pointer-events="none">4</text><circle cx="354.43" cy="195.2" r="12.76" fill="#f8fafc" stroke="#94a3b8" stroke-width="1.1"/><text x="354.43" y="219.32" text-anchor="middle" font-size="8.5" font-weight="800" fill="#475569" pointer-events="none">5</text><circle cx="389.29" cy="195.2" r="12.76" fill="#f8fafc" stroke="#94a3b8" stroke-width="1.1"/><text x="389.29" y="219.32" text-anchor="middle" font-size="8.5" font-weight="800" fill="#475569" pointer-events="none">6</text><circle cx="424.14" cy="195.2" r="12.76" fill="#f8fafc" stroke="#94a3b8" stroke-width="1.1"/><text x="424.14" y="219.32" text-anchor="middle" font-size="8.5" font-weight="800" fill="#475569" pointer-events="none">7</text><circle cx="459.00" cy="195.2" r="12.76" fill="#f8fafc" stroke="#94a3b8" stroke-width="1.1"/><text x="459.00" y="219.32" text-anchor="middle" font-size="8.5" font-weight="800" fill="#475569" pointer-events="none">8</text><circle cx="403.00" cy="269.2" r="12.76" fill="#f8fafc" stroke="#94a3b8" stroke-width="1.1"/><text x="403.00" y="293.32" text-anchor="middle" font-size="8.5" font-weight="800" fill="#475569" pointer-events="none">1</text><circle cx="368.14" cy="269.2" r="12.76" fill="#f8fafc" stroke="#94a3b8" stroke-width="1.1"/><text x="368.14" y="293.32" text-anchor="middle" font-size="8.5" font-weight="800" fill="#475569" pointer-events="none">2</text><circle cx="333.29" cy="269.2" r="12.76" fill="#f8fafc" stroke="#94a3b8" stroke-width="1.1"/><text x="333.29" y="293.32" text-anchor="middle" font-size="8.5" font-weight="800" fill="#475569" pointer-events="none">3</text><circle cx="298.43" cy="269.2" r="12.76" fill="#f8fafc" stroke="#94a3b8" stroke-width="1.1"/><text x="298.43" y="293.32" text-anchor="middle" font-size="8.5" font-weight="800" fill="#475569" pointer-events="none">4</text><circle cx="263.57" cy="269.2" r="12.76" fill="#f8fafc" stroke="#94a3b8" stroke-width="1.1"/><text x="263.57" y="293.32" text-anchor="middle" font-size="8.5" font-weight="800" fill="#475569" pointer-events="none">5</text><circle cx="228.71" cy="269.2" r="12.76" fill="#f8fafc" stroke="#94a3b8" stroke-width="1.1"/><text x="228.71" y="293.32" text-anchor="middle" font-size="8.5" font-weight="800" fill="#475569" pointer-events="none">6</text><circle cx="193.86" cy="269.2" r="12.76" fill="#f8fafc" stroke="#94a3b8" stroke-width="1.1"/><text x="193.86" y="293.32" text-anchor="middle" font-size="8.5" font-weight="800" fill="#475569" pointer-events="none">7</text><circle cx="159.00" cy="269.2" r="12.76" fill="#f8fafc" stroke="#94a3b8" stroke-width="1.1"/><text x="159.00" y="293.32" text-anchor="middle" font-size="8.5" font-weight="800" fill="#475569" pointer-events="none">8</text><circle cx="103.00" cy="343.2" r="12.76" fill="#f8fafc" stroke="#94a3b8" stroke-width="1.1"/><text x="103.00" y="367.32" text-anchor="middle" font-size="8.5" font-weight="800" fill="#475569" pointer-events="none">1</text><circle cx="137.86" cy="343.2" r="12.76" fill="#f8fafc" stroke="#94a3b8" stroke-width="1.1"/><text x="137.86" y="367.32" text-anchor="middle" font-size="8.5" font-weight="800" fill="#475569" pointer-events="none">2</text><circle cx="172.71" cy="343.2" r="12.76" fill="#f8fafc" stroke="#94a3b8" stroke-width="1.1"/><text x="172.71" y="367.32" text-anchor="middle" font-size="8.5" font-weight="800" fill="#475569" pointer-events="none">3</text><circle cx="207.57" cy="343.2" r="12.76" fill="#f8fafc" stroke="#94a3b8" stroke-width="1.1"/><text x="207.57" y="367.32" text-anchor="middle" font-size="8.5" font-weight="800" fill="#475569" pointer-events="none">4</text><circle cx="242.43" cy="343.2" r="12.76" fill="#f8fafc" stroke="#94a3b8" stroke-width="1.1"/><text x="242.43" y="367.32" text-anchor="middle" font-size="8.5" font-weight="800" fill="#475569" pointer-events="none">5</text><circle cx="277.29" cy="343.2" r="12.76" fill="#f8fafc" stroke="#94a3b8" stroke-width="1.1"/><text x="277.29" y="367.32" text-anchor="middle" font-size="8.5" font-weight="800" fill="#475569" pointer-events="none">6</text><circle cx="312.14" cy="343.2" r="12.76" fill="#f8fafc" stroke="#94a3b8" stroke-width="1.1"/><text x="312.14" y="367.32" text-anchor="middle" font-size="8.5" font-weight="800" fill="#475569" pointer-events="none">7</text><circle cx="347.00" cy="343.2" r="12.76" fill="#f8fafc" stroke="#94a3b8" stroke-width="1.1"/><text x="347.00" y="367.32" text-anchor="middle" font-size="8.5" font-weight="800" fill="#475569" pointer-events="none">8</text><circle cx="737.00" cy="121.2" r="12.76" fill="#f8fafc" stroke="#94a3b8" stroke-width="1.1"/><text x="737.00" y="145.32" text-anchor="middle" font-size="8.5" font-weight="800" fill="#475569" pointer-events="none">1</text><circle cx="711.86" cy="121.2" r="12.76" fill="#f8fafc" stroke="#94a3b8" stroke-width="1.1"/><text x="711.86" y="145.32" text-anchor="middle" font-size="8.5" font-weight="800" fill="#475569" pointer-events="none">2</text><circle cx="686.71" cy="121.2" r="12.76" fill="#f8fafc" stroke="#94a3b8" stroke-width="1.1"/><text x="686.71" y="145.32" text-anchor="middle" font-size="8.5" font-weight="800" fill="#475569" pointer-events="none">3</text><circle cx="661.57" cy="121.2" r="12.76" fill="#f8fafc" stroke="#94a3b8" stroke-width="1.1"/><text x="661.57" y="145.32" text-anchor="middle" font-size="8.5" font-weight="800" fill="#475569" pointer-events="none">4</text><circle cx="636.43" cy="121.2" r="12.76" fill="#f8fafc" stroke="#94a3b8" stroke-width="1.1"/><text x="636.43" y="145.32" text-anchor="middle" font-size="8.5" font-weight="800" fill="#475569" pointer-events="none">5</text><circle cx="611.29" cy="121.2" r="12.76" fill="#f8fafc" stroke="#94a3b8" stroke-width="1.1"/><text x="611.29" y="145.32" text-anchor="middle" font-size="8.5" font-weight="800" fill="#475569" pointer-events="none">6</text><circle cx="586.14" cy="121.2" r="12.76" fill="#f8fafc" stroke="#94a3b8" stroke-width="1.1"/><text x="586.14" y="145.32" text-anchor="middle" font-size="8.5" font-weight="800" fill="#475569" pointer-events="none">7</text><circle cx="561.00" cy="121.2" r="12.76" fill="#f8fafc" stroke="#94a3b8" stroke-width="1.1"/><text x="561.00" y="145.32" text-anchor="middle" font-size="8.5" font-weight="800" fill="#475569" pointer-events="none">8</text><circle cx="549.00" cy="195.2" r="12.76" fill="#f8fafc" stroke="#94a3b8" stroke-width="1.1"/><text x="549.00" y="219.32" text-anchor="middle" font-size="8.5" font-weight="800" fill="#475569" pointer-events="none">1</text><circle cx="583.86" cy="195.2" r="12.76" fill="#f8fafc" stroke="#94a3b8" stroke-width="1.1"/><text x="583.86" y="219.32" text-anchor="middle" font-size="8.5" font-weight="800" fill="#475569" pointer-events="none">2</text><circle cx="618.71" cy="195.2" r="12.76" fill="#f8fafc" stroke="#94a3b8" stroke-width="1.1"/><text x="618.71" y="219.32" text-anchor="middle" font-size="8.5" font-weight="800" fill="#475569" pointer-events="none">3</text><circle cx="653.57" cy="195.2" r="12.76" fill="#f8fafc" stroke="#94a3b8" stroke-width="1.1"/><text x="653.57" y="219.32" text-anchor="middle" font-size="8.5" font-weight="800" fill="#475569" pointer-events="none">4</text><circle cx="688.43" cy="195.2" r="12.76" fill="#f8fafc" stroke="#94a3b8" stroke-width="1.1"/><text x="688.43" y="219.32" text-anchor="middle" font-size="8.5" font-weight="800" fill="#475569" pointer-events="none">5</text><circle cx="723.29" cy="195.2" r="12.76" fill="#f8fafc" stroke="#94a3b8" stroke-width="1.1"/><text x="723.29" y="219.32" text-anchor="middle" font-size="8.5" font-weight="800" fill="#475569" pointer-events="none">6</text><circle cx="758.14" cy="195.2" r="12.76" fill="#f8fafc" stroke="#94a3b8" stroke-width="1.1"/><text x="758.14" y="219.32" text-anchor="middle" font-size="8.5" font-weight="800" fill="#475569" pointer-events="none">7</text><circle cx="793.00" cy="195.2" r="12.76" fill="#f8fafc" stroke="#94a3b8" stroke-width="1.1"/><text x="793.00" y="219.32" text-anchor="middle" font-size="8.5" font-weight="800" fill="#475569" pointer-events="none">8</text><circle cx="849.00" cy="269.2" r="12.76" fill="#f8fafc" stroke="#94a3b8" stroke-width="1.1"/><text x="849.00" y="293.32" text-anchor="middle" font-size="8.5" font-weight="800" fill="#475569" pointer-events="none">1</text><circle cx="814.14" cy="269.2" r="12.76" fill="#f8fafc" stroke="#94a3b8" stroke-width="1.1"/><text x="814.14" y="293.32" text-anchor="middle" font-size="8.5" font-weight="800" fill="#475569" pointer-events="none">2</text><circle cx="779.29" cy="269.2" r="12.76" fill="#f8fafc" stroke="#94a3b8" stroke-width="1.1"/><text x="779.29" y="293.32" text-anchor="middle" font-size="8.5" font-weight="800" fill="#475569" pointer-events="none">3</text><circle cx="744.43" cy="269.2" r="12.76" fill="#f8fafc" stroke="#94a3b8" stroke-width="1.1"/><text x="744.43" y="293.32" text-anchor="middle" font-size="8.5" font-weight="800" fill="#475569" pointer-events="none">4</text><circle cx="709.57" cy="269.2" r="12.76" fill="#f8fafc" stroke="#94a3b8" stroke-width="1.1"/><text x="709.57" y="293.32" text-anchor="middle" font-size="8.5" font-weight="800" fill="#475569" pointer-events="none">5</text><circle cx="674.71" cy="269.2" r="12.76" fill="#f8fafc" stroke="#94a3b8" stroke-width="1.1"/><text x="674.71" y="293.32" text-anchor="middle" font-size="8.5" font-weight="800" fill="#475569" pointer-events="none">6</text><circle cx="639.86" cy="269.2" r="12.76" fill="#f8fafc" stroke="#94a3b8" stroke-width="1.1"/><text x="639.86" y="293.32" text-anchor="middle" font-size="8.5" font-weight="800" fill="#475569" pointer-events="none">7</text><circle cx="605.00" cy="269.2" r="12.76" fill="#f8fafc" stroke="#94a3b8" stroke-width="1.1"/><text x="605.00" y="293.32" text-anchor="middle" font-size="8.5" font-weight="800" fill="#475569" pointer-events="none">8</text><circle cx="661.00" cy="343.2" r="12.76" fill="#f8fafc" stroke="#94a3b8" stroke-width="1.1"/><text x="661.00" y="367.32" text-anchor="middle" font-size="8.5" font-weight="800" fill="#475569" pointer-events="none">1</text><circle cx="695.86" cy="343.2" r="12.76" fill="#f8fafc" stroke="#94a3b8" stroke-width="1.1"/><text x="695.86" y="367.32" text-anchor="middle" font-size="8.5" font-weight="800" fill="#475569" pointer-events="none">2</text><circle cx="730.71" cy="343.2" r="12.76" fill="#f8fafc" stroke="#94a3b8" stroke-width="1.1"/><text x="730.71" y="367.32" text-anchor="middle" font-size="8.5" font-weight="800" fill="#475569" pointer-events="none">3</text><circle cx="765.57" cy="343.2" r="12.76" fill="#f8fafc" stroke="#94a3b8" stroke-width="1.1"/><text x="765.57" y="367.32" text-anchor="middle" font-size="8.5" font-weight="800" fill="#475569" pointer-events="none">4</text><circle cx="800.43" cy="343.2" r="12.76" fill="#f8fafc" stroke="#94a3b8" stroke-width="1.1"/><text x="800.43" y="367.32" text-anchor="middle" font-size="8.5" font-weight="800" fill="#475569" pointer-events="none">5</text><circle cx="835.29" cy="343.2" r="12.76" fill="#f8fafc" stroke="#94a3b8" stroke-width="1.1"/><text x="835.29" y="367.32" text-anchor="middle" font-size="8.5" font-weight="800" fill="#475569" pointer-events="none">6</text><circle cx="870.14" cy="343.2" r="12.76" fill="#f8fafc" stroke="#94a3b8" stroke-width="1.1"/><text x="870.14" y="367.32" text-anchor="middle" font-size="8.5" font-weight="800" fill="#475569" pointer-events="none">7</text><circle cx="905.00" cy="343.2" r="12.76" fill="#f8fafc" stroke="#94a3b8" stroke-width="1.1"/><text x="905.00" y="367.32" text-anchor="middle" font-size="8.5" font-weight="800" fill="#475569" pointer-events="none">8</text><rect x="414" y="422" width="181" height="100" rx="12" fill="url(#nftTkBody)" stroke="#94a3b8" stroke-width="1.2"/><rect x="417" y="442" width="175" height="77" fill="url(#nftTkAq)" clip-path="url(#nftTkClip)" opacity="0.8"></rect><ellipse cx="504.5" cy="442" rx="82.5" ry="5" fill="#0284c7" opacity="0.3"></ellipse><text x="504.5" y="477" text-anchor="middle" fill="#0284c7" font-size="21" font-weight="900" font-family="system-ui,sans-serif">40 L mezcla</text><g class="nft-flow-ports" pointer-events="none"><circle cx="505" cy="506" r="5.5" fill="#2563eb" stroke="#fef3c7" stroke-width="1.4"/><circle cx="428" cy="438" r="5.5" fill="#16a34a" stroke="#fef3c7" stroke-width="1.4"/><circle cx="581" cy="438" r="5.5" fill="#16a34a" stroke="#fef3c7" stroke-width="1.4"/></g></svg>